<?xml version="1.0" encoding="UTF-8" standalone="no"?>
<!DOCTYPE svg PUBLIC "-//W3C//DTD SVG 1.1//EN"
 "http://www.w3.org/Graphics/SVG/1.1/DTD/svg11.dtd">
<!-- Generated by graphviz version 5.0.0 (20220707.1540)
 -->
<!-- Title: dependencies Pages: 1 -->
<svg width="164pt" height="247pt"
 viewBox="0.00 0.00 164.00 246.80" xmlns="http://www.w3.org/2000/svg" xmlns:xlink="http://www.w3.org/1999/xlink">
<g id="graph0" class="graph" transform="scale(1 1) rotate(0) translate(4 242.8)">
<title>dependencies</title>
<polygon fill="white" stroke="transparent" points="-4,4 -4,-242.8 160,-242.8 160,4 -4,4"/>
<text text-anchor="middle" x="78" y="-8.2" font-family="sans-serif" font-size="14.00">dependencies</text>
<g id="clust1" class="cluster">
<title>cluster_OtpModule</title>
<polygon fill="none" stroke="black" stroke-dasharray="1,5" points="8,-32.8 8,-230.8 148,-230.8 148,-32.8 8,-32.8"/>
</g>
<g id="clust4" class="cluster">
<title>cluster_OtpModule_exports</title>
<polygon fill="none" stroke="black" points="29,-170.8 29,-222.8 127,-222.8 127,-170.8 29,-170.8"/>
</g>
<g id="clust6" class="cluster">
<title>cluster_OtpModule_providers</title>
<polygon fill="none" stroke="black" points="16,-40.8 16,-92.8 140,-92.8 140,-40.8 16,-40.8"/>
</g>
<!-- OtpService  -->
<g id="node1" class="node">
<title>OtpService </title>
<polygon fill="#fb8072" stroke="black" points="119.48,-214.8 36.52,-214.8 36.52,-178.8 119.48,-178.8 119.48,-214.8"/>
<text text-anchor="middle" x="78" y="-192.6" font-family="Times,serif" font-size="14.00">OtpService </text>
</g>
<!-- OtpModule -->
<g id="node2" class="node">
<title>OtpModule</title>
<polygon fill="#8dd3c7" stroke="black" points="118.05,-149.8 115.05,-153.8 94.05,-153.8 91.05,-149.8 37.95,-149.8 37.95,-113.8 118.05,-113.8 118.05,-149.8"/>
<text text-anchor="middle" x="78" y="-127.6" font-family="Times,serif" font-size="14.00">OtpModule</text>
</g>
<!-- OtpModule&#45;&gt;OtpService  -->
<g id="edge1" class="edge">
<title>OtpModule&#45;&gt;OtpService </title>
<path fill="none" stroke="black" stroke-dasharray="5,2" d="M78,-149.91C78,-149.91 78,-168.79 78,-168.79"/>
<polygon fill="black" stroke="black" points="74.5,-168.79 78,-178.79 81.5,-168.79 74.5,-168.79"/>
</g>
<!-- OtpService -->
<g id="node3" class="node">
<title>OtpService</title>
<ellipse fill="#fdb462" stroke="black" cx="78" cy="-66.8" rx="54.46" ry="18"/>
<text text-anchor="middle" x="78" y="-62.6" font-family="Times,serif" font-size="14.00">OtpService</text>
</g>
<!-- OtpService&#45;&gt;OtpModule -->
<g id="edge2" class="edge">
<title>OtpService&#45;&gt;OtpModule</title>
<path fill="none" stroke="black" d="M78,-84.91C78,-84.91 78,-103.79 78,-103.79"/>
<polygon fill="black" stroke="black" points="74.5,-103.79 78,-113.79 81.5,-103.79 74.5,-103.79"/>
</g>
</g>
</svg>
