<?xml version="1.0" encoding="UTF-8" standalone="no"?>
<!DOCTYPE svg PUBLIC "-//W3C//DTD SVG 1.1//EN"
 "http://www.w3.org/Graphics/SVG/1.1/DTD/svg11.dtd">
<!-- Generated by graphviz version 5.0.0 (20220707.1540)
 -->
<!-- Title: dependencies Pages: 1 -->
<svg width="751pt" height="174pt"
 viewBox="0.00 0.00 751.00 173.80" xmlns="http://www.w3.org/2000/svg" xmlns:xlink="http://www.w3.org/1999/xlink">
<g id="graph0" class="graph" transform="scale(1 1) rotate(0) translate(4 169.8)">
<title>dependencies</title>
<polygon fill="white" stroke="transparent" points="-4,4 -4,-169.8 747,-169.8 747,4 -4,4"/>
<text text-anchor="middle" x="371.5" y="-8.2" font-family="sans-serif" font-size="14.00">dependencies</text>
<g id="clust1" class="cluster">
<title>cluster_AppModule</title>
<polygon fill="none" stroke="black" stroke-dasharray="1,5" points="8,-32.8 8,-157.8 735,-157.8 735,-32.8 8,-32.8"/>
</g>
<g id="clust3" class="cluster">
<title>cluster_AppModule_imports</title>
<polygon fill="none" stroke="black" points="305,-40.8 305,-92.8 727,-92.8 727,-40.8 305,-40.8"/>
</g>
<g id="clust6" class="cluster">
<title>cluster_AppModule_providers</title>
<polygon fill="none" stroke="black" points="16,-40.8 16,-92.8 297,-92.8 297,-40.8 16,-40.8"/>
</g>
<!-- AuthModule -->
<g id="node1" class="node">
<title>AuthModule</title>
<polygon fill="#8dd3c7" stroke="black" points="718.55,-84.8 715.55,-88.8 694.55,-88.8 691.55,-84.8 631.45,-84.8 631.45,-48.8 718.55,-48.8 718.55,-84.8"/>
<text text-anchor="middle" x="675" y="-62.6" font-family="Times,serif" font-size="14.00">AuthModule</text>
</g>
<!-- AppModule -->
<g id="node5" class="node">
<title>AppModule</title>
<polygon fill="#8dd3c7" stroke="black" points="452.66,-149.8 449.66,-153.8 428.66,-153.8 425.66,-149.8 369.34,-149.8 369.34,-113.8 452.66,-113.8 452.66,-149.8"/>
<text text-anchor="middle" x="411" y="-127.6" font-family="Times,serif" font-size="14.00">AppModule</text>
</g>
<!-- AuthModule&#45;&gt;AppModule -->
<g id="edge1" class="edge">
<title>AuthModule&#45;&gt;AppModule</title>
<path fill="none" stroke="black" d="M675,-85.08C675,-106.12 675,-137.8 675,-137.8 675,-137.8 462.83,-137.8 462.83,-137.8"/>
<polygon fill="black" stroke="black" points="462.83,-134.3 452.83,-137.8 462.83,-141.3 462.83,-134.3"/>
</g>
<!-- OtpModule -->
<g id="node2" class="node">
<title>OtpModule</title>
<polygon fill="#8dd3c7" stroke="black" points="613.05,-84.8 610.05,-88.8 589.05,-88.8 586.05,-84.8 532.95,-84.8 532.95,-48.8 613.05,-48.8 613.05,-84.8"/>
<text text-anchor="middle" x="573" y="-62.6" font-family="Times,serif" font-size="14.00">OtpModule</text>
</g>
<!-- OtpModule&#45;&gt;AppModule -->
<g id="edge2" class="edge">
<title>OtpModule&#45;&gt;AppModule</title>
<path fill="none" stroke="black" d="M573,-84.82C573,-102.17 573,-125.8 573,-125.8 573,-125.8 462.72,-125.8 462.72,-125.8"/>
<polygon fill="black" stroke="black" points="462.72,-122.3 452.72,-125.8 462.72,-129.3 462.72,-122.3"/>
</g>
<!-- PrismaModule -->
<g id="node3" class="node">
<title>PrismaModule</title>
<polygon fill="#8dd3c7" stroke="black" points="515.44,-84.8 512.44,-88.8 491.44,-88.8 488.44,-84.8 416.56,-84.8 416.56,-48.8 515.44,-48.8 515.44,-84.8"/>
<text text-anchor="middle" x="466" y="-62.6" font-family="Times,serif" font-size="14.00">PrismaModule</text>
</g>
<!-- PrismaModule&#45;&gt;AppModule -->
<g id="edge3" class="edge">
<title>PrismaModule&#45;&gt;AppModule</title>
<path fill="none" stroke="black" d="M434.81,-84.91C434.81,-84.91 434.81,-103.79 434.81,-103.79"/>
<polygon fill="black" stroke="black" points="431.31,-103.79 434.81,-113.79 438.31,-103.79 431.31,-103.79"/>
</g>
<!-- UserModule -->
<g id="node4" class="node">
<title>UserModule</title>
<polygon fill="#8dd3c7" stroke="black" points="398.99,-84.8 395.99,-88.8 374.99,-88.8 371.99,-84.8 313.01,-84.8 313.01,-48.8 398.99,-48.8 398.99,-84.8"/>
<text text-anchor="middle" x="356" y="-62.6" font-family="Times,serif" font-size="14.00">UserModule</text>
</g>
<!-- UserModule&#45;&gt;AppModule -->
<g id="edge4" class="edge">
<title>UserModule&#45;&gt;AppModule</title>
<path fill="none" stroke="black" d="M384.08,-84.91C384.08,-84.91 384.08,-103.79 384.08,-103.79"/>
<polygon fill="black" stroke="black" points="380.58,-103.79 384.08,-113.79 387.58,-103.79 380.58,-103.79"/>
</g>
<!-- AppService -->
<g id="node6" class="node">
<title>AppService</title>
<ellipse fill="#fdb462" stroke="black" cx="232" cy="-66.8" rx="56.75" ry="18"/>
<text text-anchor="middle" x="232" y="-62.6" font-family="Times,serif" font-size="14.00">AppService</text>
</g>
<!-- AppService&#45;&gt;AppModule -->
<g id="edge5" class="edge">
<title>AppService&#45;&gt;AppModule</title>
<path fill="none" stroke="black" d="M232,-84.82C232,-102.17 232,-125.8 232,-125.8 232,-125.8 359.03,-125.8 359.03,-125.8"/>
<polygon fill="black" stroke="black" points="359.03,-129.3 369.03,-125.8 359.03,-122.3 359.03,-129.3"/>
</g>
<!-- PrismaService -->
<g id="node7" class="node">
<title>PrismaService</title>
<ellipse fill="#fdb462" stroke="black" cx="91" cy="-66.8" rx="66.64" ry="18"/>
<text text-anchor="middle" x="91" y="-62.6" font-family="Times,serif" font-size="14.00">PrismaService</text>
</g>
<!-- PrismaService&#45;&gt;AppModule -->
<g id="edge6" class="edge">
<title>PrismaService&#45;&gt;AppModule</title>
<path fill="none" stroke="black" d="M91,-85.08C91,-106.12 91,-137.8 91,-137.8 91,-137.8 359.17,-137.8 359.17,-137.8"/>
<polygon fill="black" stroke="black" points="359.17,-141.3 369.17,-137.8 359.17,-134.3 359.17,-141.3"/>
</g>
</g>
</svg>
