<?xml version="1.0" encoding="UTF-8" standalone="no"?>
<!DOCTYPE svg PUBLIC "-//W3C//DTD SVG 1.1//EN"
 "http://www.w3.org/Graphics/SVG/1.1/DTD/svg11.dtd">
<!-- Generated by graphviz version 5.0.0 (20220707.1540)
 -->
<!-- Title: dependencies Pages: 1 -->
<svg width="856pt" height="174pt"
 viewBox="0.00 0.00 856.00 173.80" xmlns="http://www.w3.org/2000/svg" xmlns:xlink="http://www.w3.org/1999/xlink">
<g id="graph0" class="graph" transform="scale(1 1) rotate(0) translate(4 169.8)">
<title>dependencies</title>
<polygon fill="white" stroke="transparent" points="-4,4 -4,-169.8 852,-169.8 852,4 -4,4"/>
<text text-anchor="middle" x="424" y="-8.2" font-family="sans-serif" font-size="14.00">dependencies</text>
<g id="clust1" class="cluster">
<title>cluster_AppModule</title>
<polygon fill="none" stroke="black" stroke-dasharray="1,5" points="8,-32.8 8,-157.8 840,-157.8 840,-32.8 8,-32.8"/>
</g>
<g id="clust3" class="cluster">
<title>cluster_AppModule_imports</title>
<polygon fill="none" stroke="black" points="305,-40.8 305,-92.8 832,-92.8 832,-40.8 305,-40.8"/>
</g>
<g id="clust6" class="cluster">
<title>cluster_AppModule_providers</title>
<polygon fill="none" stroke="black" points="16,-40.8 16,-92.8 297,-92.8 297,-40.8 16,-40.8"/>
</g>
<!-- AuthModule -->
<g id="node1" class="node">
<title>AuthModule</title>
<polygon fill="#8dd3c7" stroke="black" points="823.55,-84.8 820.55,-88.8 799.55,-88.8 796.55,-84.8 736.45,-84.8 736.45,-48.8 823.55,-48.8 823.55,-84.8"/>
<text text-anchor="middle" x="780" y="-62.6" font-family="Times,serif" font-size="14.00">AuthModule</text>
</g>
<!-- AppModule -->
<g id="node6" class="node">
<title>AppModule</title>
<polygon fill="#8dd3c7" stroke="black" points="507.66,-149.8 504.66,-153.8 483.66,-153.8 480.66,-149.8 424.34,-149.8 424.34,-113.8 507.66,-113.8 507.66,-149.8"/>
<text text-anchor="middle" x="466" y="-127.6" font-family="Times,serif" font-size="14.00">AppModule</text>
</g>
<!-- AuthModule&#45;&gt;AppModule -->
<g id="edge1" class="edge">
<title>AuthModule&#45;&gt;AppModule</title>
<path fill="none" stroke="black" d="M780,-85.09C780,-107.01 780,-140.8 780,-140.8 780,-140.8 517.7,-140.8 517.7,-140.8"/>
<polygon fill="black" stroke="black" points="517.7,-137.3 507.7,-140.8 517.7,-144.3 517.7,-137.3"/>
</g>
<!-- CoreModule -->
<g id="node2" class="node">
<title>CoreModule</title>
<polygon fill="#8dd3c7" stroke="black" points="718.27,-84.8 715.27,-88.8 694.27,-88.8 691.27,-84.8 631.73,-84.8 631.73,-48.8 718.27,-48.8 718.27,-84.8"/>
<text text-anchor="middle" x="675" y="-62.6" font-family="Times,serif" font-size="14.00">CoreModule</text>
</g>
<!-- CoreModule&#45;&gt;AppModule -->
<g id="edge2" class="edge">
<title>CoreModule&#45;&gt;AppModule</title>
<path fill="none" stroke="black" d="M675,-84.91C675,-104.14 675,-131.8 675,-131.8 675,-131.8 517.79,-131.8 517.79,-131.8"/>
<polygon fill="black" stroke="black" points="517.79,-128.3 507.79,-131.8 517.79,-135.3 517.79,-128.3"/>
</g>
<!-- OtpModule -->
<g id="node3" class="node">
<title>OtpModule</title>
<polygon fill="#8dd3c7" stroke="black" points="613.05,-84.8 610.05,-88.8 589.05,-88.8 586.05,-84.8 532.95,-84.8 532.95,-48.8 613.05,-48.8 613.05,-84.8"/>
<text text-anchor="middle" x="573" y="-62.6" font-family="Times,serif" font-size="14.00">OtpModule</text>
</g>
<!-- OtpModule&#45;&gt;AppModule -->
<g id="edge3" class="edge">
<title>OtpModule&#45;&gt;AppModule</title>
<path fill="none" stroke="black" d="M573,-84.83C573,-101.2 573,-122.8 573,-122.8 573,-122.8 517.68,-122.8 517.68,-122.8"/>
<polygon fill="black" stroke="black" points="517.68,-119.3 507.68,-122.8 517.68,-126.3 517.68,-119.3"/>
</g>
<!-- PrismaModule -->
<g id="node4" class="node">
<title>PrismaModule</title>
<polygon fill="#8dd3c7" stroke="black" points="515.44,-84.8 512.44,-88.8 491.44,-88.8 488.44,-84.8 416.56,-84.8 416.56,-48.8 515.44,-48.8 515.44,-84.8"/>
<text text-anchor="middle" x="466" y="-62.6" font-family="Times,serif" font-size="14.00">PrismaModule</text>
</g>
<!-- PrismaModule&#45;&gt;AppModule -->
<g id="edge4" class="edge">
<title>PrismaModule&#45;&gt;AppModule</title>
<path fill="none" stroke="black" d="M466,-84.91C466,-84.91 466,-103.79 466,-103.79"/>
<polygon fill="black" stroke="black" points="462.5,-103.79 466,-113.79 469.5,-103.79 462.5,-103.79"/>
</g>
<!-- UserModule -->
<g id="node5" class="node">
<title>UserModule</title>
<polygon fill="#8dd3c7" stroke="black" points="398.99,-84.8 395.99,-88.8 374.99,-88.8 371.99,-84.8 313.01,-84.8 313.01,-48.8 398.99,-48.8 398.99,-84.8"/>
<text text-anchor="middle" x="356" y="-62.6" font-family="Times,serif" font-size="14.00">UserModule</text>
</g>
<!-- UserModule&#45;&gt;AppModule -->
<g id="edge5" class="edge">
<title>UserModule&#45;&gt;AppModule</title>
<path fill="none" stroke="black" d="M356,-84.83C356,-101.2 356,-122.8 356,-122.8 356,-122.8 414.1,-122.8 414.1,-122.8"/>
<polygon fill="black" stroke="black" points="414.1,-126.3 424.1,-122.8 414.1,-119.3 414.1,-126.3"/>
</g>
<!-- AppService -->
<g id="node7" class="node">
<title>AppService</title>
<ellipse fill="#fdb462" stroke="black" cx="232" cy="-66.8" rx="56.75" ry="18"/>
<text text-anchor="middle" x="232" y="-62.6" font-family="Times,serif" font-size="14.00">AppService</text>
</g>
<!-- AppService&#45;&gt;AppModule -->
<g id="edge6" class="edge">
<title>AppService&#45;&gt;AppModule</title>
<path fill="none" stroke="black" d="M232,-84.91C232,-104.14 232,-131.8 232,-131.8 232,-131.8 414.17,-131.8 414.17,-131.8"/>
<polygon fill="black" stroke="black" points="414.17,-135.3 424.17,-131.8 414.17,-128.3 414.17,-135.3"/>
</g>
<!-- PrismaService -->
<g id="node8" class="node">
<title>PrismaService</title>
<ellipse fill="#fdb462" stroke="black" cx="91" cy="-66.8" rx="66.64" ry="18"/>
<text text-anchor="middle" x="91" y="-62.6" font-family="Times,serif" font-size="14.00">PrismaService</text>
</g>
<!-- PrismaService&#45;&gt;AppModule -->
<g id="edge7" class="edge">
<title>PrismaService&#45;&gt;AppModule</title>
<path fill="none" stroke="black" d="M91,-85.09C91,-107.01 91,-140.8 91,-140.8 91,-140.8 414.07,-140.8 414.07,-140.8"/>
<polygon fill="black" stroke="black" points="414.07,-144.3 424.07,-140.8 414.07,-137.3 414.07,-144.3"/>
</g>
</g>
</svg>
